# xmcd CD database file
#
# Track frame offsets:
#	150
#	8879
#	28703
#	50807
#	66429
#	91169
#	106220
#	126173
#	140549
#	166605
#	184219
#	191531
#
# Disc length: 2749 seconds
#
# Revision: 1
# Processed by: cddbd v1.5.2PL0 Copyright (c) Steve Scherf et al.
# Submitted via: CDex 1.70beta2
#
DISCID=a20abb0c
DTITLE=John Mellencamp - Mr. Happy Go Lucky
DYEAR=1996
DGENRE=Rock
TTITLE0=Overture
TTITLE1=Jerry
TTITLE2=Key West Intermezzo
TTITLE3=Just Another Day
TTITLE4=This May Not Be the End of the World
TTITLE5=Emotional Love
TTITLE6=Mr. Bellows
TTITLE7=Full Catastrophe
TTITLE8=Circling Around the Moon
TTITLE9=Large World Turning
TTITLE10=Jackamo Road
TTITLE11=Life is Hard
EXTD=YEAR: 1996
EXTT0=
EXTT1=
EXTT2=
EXTT3=
EXTT4=
EXTT5=
EXTT6=
EXTT7=
EXTT8=
EXTT9=
EXTT10=
EXTT11=
PLAYORDER=
